<svg width="40" height="40" viewBox="0 0 40 40" fill="none" xmlns="http://www.w3.org/2000/svg">
<rect width="40" height="40" rx="20" fill="#14062D"/>
<path d="M33.5502 26.1084C33.4679 26.0604 31.8421 25.1188 29.5012 24.5961C32.8894 20.1945 33.9335 15.1232 33.98 14.8906C34.0422 14.5783 33.9568 14.252 33.7532 14.0252C33.5934 13.8471 33.3777 13.7498 33.1562 13.7498C33.0961 13.7498 33.0355 13.7568 32.9748 13.7721C32.7702 13.8219 28.4112 14.9199 24.5068 18.4455C24.5073 18.36 24.5073 18.2738 24.5073 18.1877C24.5073 11.2273 21.3443 5.66504 21.2099 5.43184C21.1337 5.29943 21.0287 5.19047 20.9047 5.115C20.7806 5.03953 20.6415 4.99998 20.5001 5C20.2127 5 19.9448 5.16289 19.7897 5.43184C19.6553 5.66504 16.4923 11.2273 16.4923 18.1877C16.4923 18.2738 16.4928 18.36 16.4928 18.4455C12.5889 14.9205 8.22989 13.8225 8.02475 13.7721C7.96464 13.7574 7.90399 13.7498 7.84335 13.7498C7.62187 13.7498 7.40618 13.8471 7.2464 14.0252C7.14624 14.1367 7.073 14.2744 7.03346 14.4257C6.99391 14.577 6.98934 14.7369 7.02017 14.8906C7.06658 15.1232 8.11071 20.1945 11.4989 24.5961C9.15801 25.1188 7.53274 26.0604 7.44995 26.1084C7.31429 26.188 7.20073 26.3072 7.12148 26.4532C7.04224 26.5992 7.00031 26.7664 7.0002 26.9369C7.00009 27.1073 7.04181 27.2746 7.12087 27.4207C7.19993 27.5668 7.31334 27.6862 7.4489 27.766C7.5781 27.8416 10.653 29.6246 14.4884 29.6246C14.8122 29.6246 15.1191 29.6187 15.4112 29.6064C14.8116 30.909 14.5401 31.8512 14.5248 31.9045C14.4298 32.2373 14.5095 32.6012 14.731 32.8484C14.8398 32.9698 14.9764 33.0557 15.1261 33.0969C15.2758 33.1382 15.4327 33.1331 15.58 33.0822C15.6765 33.0488 17.5691 32.3797 19.6563 30.7801V34.5312C19.6563 34.7902 19.8451 35 20.0782 35H20.9219C21.155 35 21.3438 34.7902 21.3438 34.5312V30.7807C23.431 32.3803 25.3237 33.0488 25.4202 33.0828C25.5674 33.1336 25.7244 33.1387 25.874 33.0975C26.0237 33.0563 26.1603 32.9704 26.2692 32.849C26.4907 32.6018 26.5703 32.2379 26.4754 31.9051C26.4601 31.8518 26.188 30.9096 25.5889 29.607C25.881 29.6193 26.1885 29.6252 26.5117 29.6252C30.3466 29.6252 33.422 27.8422 33.5512 27.7666C33.8276 27.6037 34.0005 27.285 34 26.9375C33.9995 26.5895 33.8265 26.2701 33.5502 26.1084Z" fill="#2ADE93"/>
<path d="M23.436 19.636L21.012 28H19.788L17.844 21.268L15.828 28L14.616 28.012L12.276 19.636H13.44L15.264 26.728L17.28 19.636H18.504L20.424 26.704L22.26 19.636H23.436Z" fill="#FBFCFE"/>
<path d="M27.112 23.692C27.416 23.74 27.692 23.864 27.94 24.064C28.196 24.264 28.396 24.512 28.54 24.808C28.692 25.104 28.768 25.42 28.768 25.756C28.768 26.18 28.66 26.564 28.444 26.908C28.228 27.244 27.912 27.512 27.496 27.712C27.088 27.904 26.604 28 26.044 28H22.924V19.636H25.924C26.492 19.636 26.976 19.732 27.376 19.924C27.776 20.108 28.076 20.36 28.276 20.68C28.476 21 28.576 21.36 28.576 21.76C28.576 22.256 28.44 22.668 28.168 22.996C27.904 23.316 27.552 23.548 27.112 23.692ZM24.016 23.248H25.852C26.364 23.248 26.76 23.128 27.04 22.888C27.32 22.648 27.46 22.316 27.46 21.892C27.46 21.468 27.32 21.136 27.04 20.896C26.76 20.656 26.356 20.536 25.828 20.536H24.016V23.248ZM25.948 27.1C26.492 27.1 26.916 26.972 27.22 26.716C27.524 26.46 27.676 26.104 27.676 25.648C27.676 25.184 27.516 24.82 27.196 24.556C26.876 24.284 26.448 24.148 25.912 24.148H24.016V27.1H25.948Z" fill="#FBFCFE"/>
</svg>
